<mxfile host="app.diagrams.net" modified="2023-05-17T08:20:59.035Z" agent="Mozilla/5.0 (Macintosh; Intel Mac OS X 10_15_7) AppleWebKit/537.36 (KHTML, like Gecko) Chrome/113.0.0.0 Safari/537.36" version="21.2.3" etag="BWmkNtsjVDnU5I98v-YV" type="github">
  <diagram name="Page-1" id="uHX-jPzoG5j-Z28GP2lY">
    <mxGraphModel>
      <root>
        <mxCell id="0" />
        <mxCell id="1" parent="0" />
      </root>
    </mxGraphModel>
  </diagram>
</mxfile>
